<svg width="150" height="150" viewBox="0 0 150 150" fill="none" xmlns="http://www.w3.org/2000/svg">
<path d="M64.2857 128.571H117.857C123.774 128.571 128.571 123.774 128.571 117.857V64.2857H64.2857V128.571ZM42.8571 128.571V64.2857H21.4286V117.857C21.4286 123.774 26.2255 128.571 32.1429 128.571H42.8571ZM128.571 32.1429C128.571 26.2255 123.774 21.4286 117.857 21.4286H32.1429C26.2255 21.4286 21.4286 26.2255 21.4286 32.1429V42.8571H128.571V32.1429ZM32.1429 0H117.857C135.609 0 150 14.3908 150 32.1429V117.857C150 135.609 135.609 150 117.857 150H32.1429C14.3908 150 0 135.609 0 117.857V32.1429C0 14.3908 14.3908 0 32.1429 0Z" fill="#FF622D"/>
</svg>
