<svg width="60" height="60" viewBox="0 0 60 60" fill="none" xmlns="http://www.w3.org/2000/svg">
<path d="M25.7143 51.4286H47.1429C49.5098 51.4286 51.4286 49.5098 51.4286 47.1429V25.7143H25.7143V51.4286ZM17.1429 51.4286V25.7143H8.57143V47.1429C8.57143 49.5098 10.4902 51.4286 12.8571 51.4286H17.1429ZM51.4286 12.8571C51.4286 10.4902 49.5098 8.57143 47.1429 8.57143H12.8571C10.4902 8.57143 8.57143 10.4902 8.57143 12.8571V17.1429H51.4286V12.8571ZM12.8571 0H47.1429C54.2437 0 60 5.75634 60 12.8571V47.1429C60 54.2437 54.2437 60 47.1429 60H12.8571C5.75634 60 0 54.2437 0 47.1429V12.8571C0 5.75634 5.75634 0 12.8571 0Z" fill="#FF622D"/>
</svg>
